<svg clip-rule="evenodd" fill-rule="evenodd" stroke-linejoin="round" stroke-miterlimit="2" viewBox="0 0 1440 4000" xmlns="http://www.w3.org/2000/svg"><path d="m1 81.8c.6.2 1 .4 1.6.8.8.4 1.6.2 2.2 0 1.6-.8 2.8-2 3.5-3.9.4-.8 1.6-.8 1.8 0 .6 1 1 2.2 1.6 3.2 1 1.8 1.8 1.8 3.7.4.4-.2.6-.4 1-.6.6.2 1.2.4 1.6.6 1.2.8 2.4 1.2 3.9 1.2 3.5 0 7.1.2 10.6.2 1.2 0 2.4 0 3.3.6 1.2.6 2.4.2 3.7 0-.8-.4-1.2-.6-1.8-1-1.2-1-1.2-2.2 0-3 1-.6 2-1.4 2.8-1.8 1 0 1.6.6 2.2 1.2 1.6 1.4 2.2 1.4 4.1.4.4-.2.6-.6 1-.6s.8.2 1 .4.4.8.2 1c-.2.6-.6 1-.8 1.6 0 .2.2.8.4.8 2.2.6 4.1.4 5.7-1.6.8-1 2.2-1 3.1 0 .6.6 1 .6 1.4.2 1-1.6 2-3.5 1.4-5.5-.2-.4 0-.8.6-.8.4 0 1 0 1 .2.6 1.6 1.8 2.6 2.6 3.9 1.8.4 3.1-.6 4.5-1 .6-.2 4.5-1 5.1-1 1.8-.2 3.3 1 5.1.2 1.4-.6 2.4 1.4 1.6 2.8-.2.4-.8.8-1.2 1.4 1.2.4 2.4.6 3.3 1 1 .4 1.6 1.2 2.8 1 .4 0 .6-.4.8-.8v-.6c-.6-.8-1.4-1.4-1.2-2.6.2-.8.6-1.4.8-2 1.8-.4 3.1-.2 4.7.4.4.2.6.6.8.8.2 1.2.2 2.4.4 3.5 0 .2.6.6.8.6.4 0 .8-.2 1-.4.4-.4.4-1.2.6-1.6.4-1 1-1.4 1.8-1.2.6.2 1 .4 1.2 1s.4 1 .6 1.6c.2.4 1.4.4 1.6 0 .4-.8 1-1.6 1.4-2.6.2-.6.2-1.2.2-1.8 0-1.6 1.2-1.8 2.4-2 .4-.6.6-1.4 1-2 .4-.8.8-1.4 1.8-1.4 2.6-.2 5.1-.2 7.7-.2 1 0 1.6.8 1.6 2 0 .6-.2 1.2-.8 1.4-1 .2-2 .2-3 .2-.2 0-.6.4-.8.8s.2 1 .6 1.4c1.6 1 3 0 4.5-.4.2 0 .4-.6.6-1 .2-.6 0-1.2.2-1.8 0-.2.6-.6.8-.6.8 0 1.4.4 2.2.4s1.4-.6 2.2-.6c.2 0 .8.4 1 .6.2.8.2 1.6.2 2.2.2 1.6 1.2 2.6 2.8 2.6 1 0 2-.2 3-.4 0-1 .2-2 .2-2.8 0-.2.6-.6.8-.8.4-.2 1.4.2 1.4.8.2.6.2 1.2.2 1.6 0 .6.2 1 .8 1.2.6 0 1.2.2 1.6-.4.4-.8 1-1.6 1.4-2.4 0 0-.4-.4-.8-.6.4-1.2-.6-1.6-1-2.4-.2-.4-.2-1.2 0-1.6s1-.6 1.6-.4c.4 0 1 .6 1.2 1 .2.2.2.8 0 1-.4.8-1 1.6-1.6 2.2 1.2-.4 2.4-1.2 3.7-.2.8.6 2 .2 3 .2 1.2 0 2 .8 2.2 1.6.4 1.2 0 2-1.4 2.8-.6.2-1 .4-1.4 1-.2.4.2 1.4.6 1.6 1.2.4 2.4.4 3.3-.6.4-.4.6-1 1-1.4.2-.2.6-.6 1-.8 1.8-.4 3.5-1 5.1-.4 1 .4 1.8 1 2.6.4 1-.6.8-1.6 1.2-2.6 0-.4.4-.8.6-1.2.6-.2 1.4-.6 2.2-.6 1.6.2 2.6-1 3.7-1.4 1.2-.4 2-1 2.8-2s2-1.8 3.1-2.6c.2-.2.4-.2.6-.2.4-.2 1.4.4 1.4.8.4 1.4.8 2.8.2 4.1-1 2.2 0 3.9 1 5.7 1.2 0 2.6-.4 3.5 0 1.6.6 2.6 0 3.3-1.2.6-.8 1.8-1 2.6-.4 1.6 1.2 3 1.8 4.7 1 .6-.2 1.2-.4 1.8-.4 1.2-.2 2.4-.2 3.5-.2 1 0 1.8.4 2.6 1.2.8 1 2.2 1 3.1.4 1-.6 2-1.2 3.1-1.8 1-1.2.4-3.5 1.8-4.7.4-.4 1-.8 1.6-.6s1 .8.8 1.4c0 .2 0 .4-.2.6 0 .4-.2.8-.2 1.2 1 1.2 1.8 2.4 2.8 3.7.4.6 1.2.6 2-.2.6-.6 1.4-.8 2.2-.4.6.4 1.2 1 1.8 1.6s1.4.6 2.2.4c1-.4 1.8-.8 2.6-1.2.4-2 .8-3.9 1.4-5.9 0-.2.6-.4 1-.6.6-.2 1 .4 1 1v.6c0 .4-.2.8-.2 1.2 0 .6.6 1.2 1.2 1 .4 0 .8-.4 1-.4 1.6.2 3 .8 4.5 1 1.4.2 2.8-.2 4.1.4.4.2.8.2 1.2.4 1-.8 2.2-1.6 3.1-2.4.4-.4 1.2-.2 1.4.4.4 1 .6 1.8 1.6 2.2s1.6.4 2-.2c.6-.8 1.2-1.6 2.2-1.8.6-.2.8.4.6 1.2 1.2 1.2 2.6.6 3.9.4-.8.2-1-.2-1.2-.8-.2-.4.2-1.2.8-1.4s1.2-.4 1.6-.4c.8 0 1.6.2 2.2.6 1.8 1 3.5 1.6 5.5 1.8.4 0 .8.2 1 .4.6 1 1.6 1 2.6.8s2-.8 2.8-.8c2 0 1.8-1.4 2.2-2.6h-.2v-.2c-.4.2-.8.2-1.2.4-.2 0-.4-.2-.4-.2.2-.2.4-.6.6-.8.6-.2 1 .2 1.2.6h.2v.2c.6-.2 1-.4 1.6-.6.4 0 1 0 1 .2 1.2 2.6 3.5 3.9 6.1 5.1.6-.4 1.4-.6 2-1 .6-.2.8-.8.8-1.4s-.2-1.2-.2-1.8c0-1 .4-1.2 1.6-1 .4 0 .8.4 1.2.4s.8-.2 1-.4c.4-1.2 1.2-2 2.6-1.4.4.2.6 0 1-.4.2-.4.6-1 1-1.4s1-.6 1.6-.2c.4.2.8.6 1.2.8h.2v-.8c0-1.2.4-1.8 1.6-2 .8-.2 1.4-.4 2.2-.6.6-.2 1.2.2 1.4.6s.4.6.4 1c.4 1.2 0 1.8-1 2.2-.8.4-1.4.4-2.2 0s-1.6-.8-2.4-.6v.2s-.2 0-.2-.2c0 1-.2 2-.2 2.8 0 1-.2 1.8-.2 2.8 1.6.2 2.8-.2 3.5-1.4.6-.8 1.8-1 2-.4 1.2 2.8 4.1 1.8 6.1 2.6.4.2 1.2-.2 1.6-.6.8-.4 1.4-.8 2.2-.2s1.6 1.2 2.6 1.2c1.4 0 2.8.2 4.1.2 1 0 1.8-.8 2.6-1.4.2-.2.2-.8.2-1-.2-.2-.6-.6-1-.6s-.8.2-1 .4c-2 1-2.8-.4-2.8-2.4 0-.2.6-.6.8-.6 2.4.8 4.9 1.2 7.1 2.6.2.6.6 1.4.8 2.2.4.8 1.2 1.4 1.8 1 1.4-.8 2.8-1.4 4.3-.6.4.2 1-.2 1.6-.2s1.2-.4 1.8 0c3 1.4 6.1.6 9.2.8.8 0 1.8-.6 2.2-.2 2 1.2 4.3.2 6.1 1.2.4.2.8.4 1 .6 1.2 1.6 2.8 2 4.7 1.4.8-.2 1.6-.2 2.4-.4.8 0 1.4-.6 2-1.2.8-.8 1.6-1 2.6-.8 1.8.4 3.3-.4 5.1-.6 1.2-.2 2.4-.2 3.3.4 1.6.8 3.3 1 5.1.6.4-.2 1.2.2 1.6.6 1.6.8 3 .6 4.5.2 1.8-1.8 3.9-1 6.1-1 .4 0 .8 0 1.4-.2.8-.8 1.8-1.8 2.4-3 .6-1 1.4-1.2 2.4-1 .4 0 .8.2 1.2 0 1.4-.6 2.8-1.6 4.3-1.6 1.4 0 2.6.8 3.9 0 .2-.2.8 0 1 .2 1 1.8 3.3 2 4.1 4.1 0 .2 1.2.2 1.6 0 .6-.2.8-1.2.4-2-.2-.4-.6-.6-.8-1-.4-.6 0-1.2.6-1.4 1.8-.4 3.5-.4 5.1.8.8.6 1.8.8 2.8.4 0-.6 0-1.2.2-1.6.2-.6.8-1 1.4-.8 1.8.2 3.3 1.2 4.5 2.6.6.6.6 1.8.8 2.6 1.2.2 1.8-.6 2.2-1.4.8-1.2 1-1.2 2.4-.6.2 0 .4.2.6.2s.4.2.6.2c.8.2 1.8-.4 1.6-1.2 0-.8-.2-1.6-.4-2.2-.2-1 .2-1.4 1-1.8s.8-1.2 1-2c.6-1.8 1.2-2.2 3-2.2 1.4 0 2.8 0 4.1.2 2.8.6 5.3 1 8.1 1 .2 0 .4.2.6.2.4.2.8 1 .6 1.4-.2.6-.6 1-1.2 1-3-.2-5.9-.6-8.7-.8-.8 0-1.6-.2-2.4 0-.6 0-1.2.4-1.4 1-.2 1-.4 2-.4 2.8.2.2.4.6.4.6 2.6.6 4.7 1.6 6.3 3.9.2.2.8.2 1 .2.4 0 .8-1 .6-1.4-.2-.8-.8-1.4-1.4-1.8s-.6-.8-.6-1.4.6-1 1.8-1.2c.8-.2 1.6-.2 2.4-.2.6 0 1.4.6 1.6 1.4v.6c0 2 1.2 2.8 2.8 3.2h1.2c.8-.8.6-1.8.6-2.8.2-1.6 1-2.4 2.4-2.8 2-.8 2-.8 3.3 1.6l.2-.2c.6.4 1.4.8 2 1.2s1.4.2 1.6-.2c1-1.4 1.4-3.2 1.8-4.9 3.7-.8 4.7-.8 8.1 0 1.6.4 3.3.6 5.1.8.2 0 .2.2.4.4 0 .2 0 .4-.2.6-.8 1-2.4.2-3.1 1-2 0-2.4 1.6-2.8 3.2.6.8 1 1.6 1.6 2.4.8 1 2.2 1.2 3 .4s1.6-1.2 2.6-.6c1.8.8 3.7 1.2 5.7 1s3.7-.4 5.7.6c.6.4 1.6.2 2.2-.6 1-1.4 2.2-1.6 3.5-1.2.6.2 1.2.2 1.8.4 3 1.2 5.9 1.8 9 1 1.2-.2 2.4 0 3.5.2 2.8.6 5.5.6 8.1.2 1.2-.2 2.4-.2 3.5 0 3.1.2 3.3-.8 4.1-3.9 0-.2-.4-.8-.6-.8-2.4-.6-4.7-.8-7.1-.6-1.4 0-2.8-.2-3.9-.8-.4-.2-.6-.4-.8-.8s0-.8 0-1 .2-.2.4-.4c.2 0 .4-.2.6-.2 3.9.2 7.9.4 11.8.4 1.2 0 2.4.2 3.5 0 3.3-.4 6.7 0 10 .2 4.5.4 9 .8 13.4.6 1.8 0 3.5.2 5.3.4.4 0 .8.2 1 .4.4.2.8.6.8.8 0 .6-.2 1.2-.6 1.4-.6.4-1.6.6-2.2.6-2.2-.2-4.3.6-6.3 1.4-.2.2-.4.6-.4 1 0 .2.2.4.2.4 1 .4 2.2 1 3.1 1.2.4.2 1.2 0 1.6-.4.8-.6 1.4-1.4 2-2.2 1-1 1.8-1 3.1 0 .4.2.6.6.8.8.6.4 1 .4 1.4-.2.4-1.2.6-2.2 0-3.5-.4-1 .6-2 1.6-2 7.3.8 14.6.2 21.6.6 3.1.2 6.3 0 9.4.2 8.9.4 17.5 0 26.4 1 .4 0 .8 0 1.2.2.4.4 1 .8 1.2 1.2.4.8.2 1.8.8 2.6 2.8-.4 5.3-.6 8.1.4.4.2.8.2 1.2.2 4.7-.4 9.2.8 14 0 1.6-.2 3.1 0 4.5 0 .2 0 .6-.6.6-.8-.8-1.4 0-2.2 1.2-2.8 1-.6 2.6-.2 3 .8.2.6.2 1.2.4 1.6.2.8.8 1 1.8.4.4-.2.6-.4 1-.6 1.2.8 2.2 1.6 3.5 1.8 3 .4 5.9.4 8.9.4 1.2 0 2.4-.4 3.3-.6h-.2l.2-.2v-1.4c.6-.2.6 0 .4.6-.2.2-.2.4-.4.6v.4c.6.6 1.4.8 2 .6 1.4-.2 2.8-.6 3.9 0 1.8.8 3.5.6 5.1 0s3-.8 4.5-.4c1.2.4 2.4.4 3.5.4.6 0 1-.4.8-1.2v-.6c0-1.2 1.6-2 2.6-1.4.4.2.6.4.8.8.4.4.6 1.2 1.2 1.2 1.8.4 3.5.6 5.3.8.2 0 .8-.2 1-.6s.6-.8.8-.6c1.4 1 3 1 4.5.6 1-.2 1.8-.8 2.4-1.6 1-1.2 1.6-1 3 .2.2.2.6.6.8.8 1.6.6 3.1 0 4.5.2 1.8.2 3.3-.2 4.7-1.8.8-1 2-.8 3.1.2.8.6 1.4 1.6 2.6 1.4 1.8-.2 3.5.4 5.1.6 1 .2 2 0 3-.2 1.4-.4 2.6-.8 3.7-1.2.8.4 1.4 1.2 2 1.2 1.6.2 3.1.4 4.7.2 3.5-.4 6.9-.6 10.4.4.6.2 1.6-.2 2.4 0 1.6.2 3-.4 4.5.6 1.6 1 3.9 0 5.7 1 .2.2.8 0 1-.4 1.2-1.4 2.6-1.6 4.3-1.4 5.1 0 10.2.2 15.3 0 2.2 0 4.1-.6 6.3-.2 2 .2 3.7.6 5.7 1.2.8-.6 1.8-1 2.6-1.6 1-.6 1.8-.6 2.8-.2 2.8.6 5.7.6 8.7 0 1.2-.2 2.4-.4 3.5-.6.4 0 .8-.2 1.2 0 3.3 1.8 6.9.4 10.4.4 2.8-.2 5.5 0 8.3 0 1 0 1.2.6 1.6 1.4.8 1.4 1 1.6 2 .6.6-.6 1.2-1 2-.8 1.6.4 3 1 4.5 1.6 1.4-1 3-2.4 4.9-2.6.8 0 1.4-.4 2.2 0 .6.2 1.2.4 1.8.2 2.4-1 4.7-.4 7.1-.6 4.1 0 8.3 0 12.4-.2 2.6 0 2.6 0 5.7 1.2 1.6-.6 3.1-1.4 5.1-1 1.8.2 3.5-.2 5.3-.4 1.2 0 2.4 0 3.5.4 2 .6 3.9.4 5.9.2 2.2-.4 4.3 0 6.3-.8 2.4.2 4.7.4 7.1.8 1.2.2 2.4.2 3.3-.4 1-.4 2-.4 3-.2 1.4.2 2.8.8 3.9.6 2.8-.6 5.5.4 8.3-.2 2.2-.4 4.1-.6 6.3-.2 2.4.2 4.7 0 7.1 0 3 0 5.9 0 8.9-.2 1.4-.2 2.6-1 3.9-1 1.2 0 2.2 1 3.3 1 4.1 0 8.3.4 12.4-.2.6 0 .6-.4.6-.8 0-.2-.2-.4-.2-.4-.8-.6-1.8-1.2-2.8-.8-1.6.4-3 .6-4.5-.2-.6-.4-1.6-.2-2.4-.2-2 .4-3.9.4-5.9.2-1.8 0-3.7-.2-5.3.6-2 .8-3.3.6-4.9-.4-.8-.4-2-.4-3-.4-2.6 0-5.1-.2-7.7.6-2.2-1.2-4.5-1.4-6.9-1.4h-8.9c-2 0-3.9.2-5.9-.4-.6-.2-1-.6-1.4-1-.2-.2-.2-.8-.2-1 0-.4.4-.6.6-.8s.4-.2.6-.2c5.5-.4 11-.2 16.5-.2.8 0 1.6 0 2.4.4 1.6.6 3 1 4.5.4 4.5 1 8.9-.8 13.4-.2 3.3.4 6.7.4 10 .8 1 0 1.8.6 2.8.8.8.2 1.6.2 2.4 0 1.4-.4 2.6-.8 3.9-.2 2 .6 3.9 0 5.9-.2 3.3-.4 6.5-.6 9.8.2 2 .6 4.3.2 6.5.2 1.6 0 3.1 0 4.7-.4 1.8-.4 3.1 1.4 5.1.8 1.6-.6 3.5-.4 5.3-.6s3.5-.2 5.3 0c1.6.2 3.1 0 4.7 0 1.4 0 2.8 0 4.1.2 1.8.2 2.6 1.2 2.6 3.2v1c.8.8 1.8.8 2.8.8.8 0 1.6-.6 1.6-1.4-.2-1.2.4-1.8 1.4-2.2s2-.6 2.8-.6c1.6 0 3.1.2 4.7.4 1 .2 2 .6 2.8.6 1 0 1.8-.6 2.8-.8 1.8-.6 3.7.4 5.1 2 1.6 2 1.6 2.2 3.7 3.5 1-.2 1.8-.8 2.8-.8 2 0 3.3-.8 4.3-2.4.6-.8 1.6-1 2.6-1h27.7c2 .2 3.9.6 5.9.6s3.9-.6 5.9-.6c1.6 0 3.1.2 4.7.6 2.4.6 4.7.8 6.9 0 1.8-.6 3.5-.6 5.3-.4 5.9.4 11.8.2 17.5 1.2 2.2.4 4.3.2 6.5-.2 3.2-.4 6.3-.4 8.8 1.4 1.4-.4 2.6-1 3.7-.8 2.8.6 5.5-.2 8.1 1 1.4.6 2.8.4 3.5-1h-.4.2c2.4.6 5.1 0 7.5 1.2 1 .6 2.4 0 3.5-.2 3.5-.8 7.3-1.4 11-1.8 2-.2 3.9-.2 5.7.8.4.2 1.2.4 1.8.4 4.1 0 8.1.6 12.2 1 1.8.2 3.5-.2 5.1-.4 3.7-.4 7.5-.4 11.2-.2 2.2.2 4.3.4 6.5-.4 3.9.2 7.9-.6 11.8.2 2 .4 4.3.2 6.5.2 1.2 0 2.4.2 3.3.8.8.4 1.2 1 1.4 1.8 0 .8.2 1.6.4 2.2s1.2 1.2 2 1c1.2-.2 2.4-.2 3.2-1.2s1.8-1.6 2.5-2.4c.8-.6 1.4-1.6 2.2-2 1-.4 2.2-.6 3.3-.8 1-.2 2.2 1.2 1.6 2-1.4 1.4-.6 4.1-3 5.1 1.6.6 2.8.6 3.7 1.2 1.8 1 3.2 1 4.7-.4.8-.8 2.2-1 3.1-1.6.8-.4 1.6-.4 2.2 0 1 .6 1.8.4 2.6-.6.2-.4.6-.4 1-.8.2-.2.6-.8.4-1-.4-.4-.8-1-1.2-1.2-1.4-.2-2.8-.2-4.1-.6-.2 0-.6-.6-.6-.8s.2-.6.6-.8.8-.2 1.2-.2c1.2 0 2.4.2 3.5 0 2.4-.4 4.1.6 5.5 2.6 0 .2.4.2.6 0 .2 0 .4-.2.4-.4v-2.2c0-.6.4-1 1-1.2 1.4-.4 2.8-.6 3.9.4 1 .8 2.2 1 3.3.6 2-.6 3.7-.8 5.7 0 .4.2.8.2 1.2.2 4.1-.8 8.3.4 12.4-.2.8-.2 1.6-.2 2.4 0 3 .4 5.9 0 8.8 0 3.6-.2 7.1 0 10.2 2 1 .6 2.2.4 3-.6.8-.8 1.4-1.2 2.4-.4.6.4 1 .2 1.6-.2 1.8-1.4 3.7-1.4 5.5 0 1.2.8 2.2 1 3.2.2.6-.6 1.4-1 2-.4 1.8 1.4 3.5 1.4 5.5.6.6-.2 1.2-.2 1.8-.4 1.4.8 2.6 1.6 4.3 1.8 1 0 2 .4 2.8.8 2.2 1 4.3 1.4 6.7 0 .4-.2 1.2-.6 1.6-.6 3.4.8 6.7 0 9.8.2 1.6.6 2 2.4 3.3 3.5 1.6-2.2 3.9-2.6 6.3-2.2.8 0 1.6.2 2.4 0 1-.2 1.8-1.2 2.8-.4.8.6.6 1.8.8 2.8.6 2.2 3 3 5.1 2 .4-.2.8-.8 1.2-1.2.8-1 .4-2.2.6-3.5.2-.6.6-1 1-1.4.8-.4 3.9-1 4.9-.8.2 0 .4.6.6 1 2 .2 3.7.4 5.7.4 3.3 0 6.5 1 9.4 2.6.6.4 1.4.8 2 1.2.4 1.2-.2 2.2-.8 3.2-.6 1.2-.4 2.2-.6 3.5 0 .6.2 1 .8 1.4.8.4 1 1.2.8 2-.2.6-.4 1 .2 1.4s1.4 0 2-.6c.2-.2.2-.4.4-.4.4-.4.6-.6.8-.8v3913.04h-1442.2v-3926.84c.2.4.6.6 1 .8zm1309.9-78.1c.4-.4 1-.6 1.6-1 0 0 .2 0 .2-.2v.4-.3h-.2v2.2c0 .6-.8 1-1.2 1-.4-.2-.6-.4-.8-.6-.2-.5-.2-1.1.4-1.5zm-36.6 75.3c0 .2.2-.2 1-.2.6 0 1 .6 1 1-.2.8-.8 1-1.6.6-.8 0-.8-.4-.4-1.4zm-3.7.2c.4-.2.8-.4 1-.2.6 0 .8.4.4.8-.2.2-.6.4-1 .4-.2 0-.2-.2-.4-.4 0-.2-.2-.6 0-.6zm-14.9 0c.4-.4 1-.6 1.4-1 1-.6 1.8-.6 2 0 .4.8.2 1.4-.2 2.2-.2.4-.4.6-.6 1-.2.2-.2.2-.4.4-.8.4-2.6-.6-2.8-1.6.1-.4.3-.8.6-1zm-6.7-15.9c.6 0 1.2.4 1 1 0 .4-.4.6-.6.8-.4.2-1-.2-1.4-.8-.2-.4.4-1 1-1zm-16.2 2.3c.8-.4 1.8-1 2.6-1.2 1.6-.2 3.2-.4 4.3-.4.6 0 1 .2 1.4.2s1 .8.8 1.4c-.2.4-.4.8-.6.8-2.6.4-4.9.6-7.3 1.4h-.6c-.4 0-1.2-.8-1-1.2 0-.2.2-.8.4-1zm-49.6-48.8s.2.2.4.4c-.4.2-.6.2-1 .4 0 0-.2-.2-.4-.4.5-.1.6-.4 1-.4zm-6.6 9.8c.8.2 1.4 1.2 1.2 2.2-.2.8-1 1.2-1.8 1s-1.2-.8-1.2-1.6c.2-1 1-1.8 1.8-1.6zm-11.7 44.2c1.8-.4 3.3-.6 5.3-.4 3.2.2 6.3 0 9.2-.8 1.4-.4 2.6-.4 4.1-.4 2.5.2 5.1 0 7.7-.2 1.2-.2 2-1.2 3.3-1.2 1.2.2 2.4.2 3.5.2 1.4 0 2.8 0 3.9-.6.4-.2 1.2-.4 1.8-.4 2.4.4 4.7.2 6.9-.6 2.4.8 4.5-.4 6.9-.4 2.2 0 4.3-.4 6.3-.6.8 0 1.6-.2 2.2-.6.4-.2 1.2-.2 1.6 0 1 .4 1.4 1.4 1.2 2.4-1.6 1-3.2 2.2-5.3 1.8-1.2-.2-2.4.2-3.5.4-3 .6-5.7 1.2-8.7 0-.4-.2-1.2 0-1.8.2-.8.2-1.4.6-2.2.6-3.1.2-6.1 1-9.2 1-3.1-.2-6.1.8-9.2.4-.6 0-1.4-.2-1.8.2-2.6 1.6-5.3.8-8.1.8-4.9.2-9.6.6-14.4 1-.2-.4-.6-.8-.6-1.2-.2-.7.2-1.6.9-1.6zm-240.8-60.4c.2.2.4.6.4.8 0 0-.2.2-.4.2s-.4-.2-.4-.2c.2-.2.2-.6.4-.8zm-15.7 61.3c1 0 1.8.4 1.8 1.2s-.6 1.4-1.4 1.6-1.6-.4-1.6-1.2c-.2-.8.4-1.6 1.2-1.6zm-23.8-1.1c1.2-.2 2.4-.2 3-.2 1.4.2 2.4.2 3.3.4.6 0 1 1.2.6 1.8-.6.8-1.4 1.6-2.4 1.6-1.6 0-3.1-.2-4.5-.4-.6 0-1-1-1-1.8 0-.7.6-1.4 1-1.4zm-15.6 0c.8-.4 1.6-.2 2.2.2.6.2.8 1.2.6 2-.4.8-1 1-1.8.6-.6-.2-1-.6-1.4-1-.2-.2-.2-.8-.2-1 .2-.3.4-.8.6-.8zm-260.3-8.9c.2-.2.4-.6.8-.6h2.2v.2h2.8c.4 0 .8.4.6.8 0 .4-.2.6-.4 1 0 .2-.4.2-.4.2-1.4.2-2.6 0-3.7.8-.2.2-1-.4-1.4-.6-.7-.6-.9-1.2-.5-1.8zm-32.6-61.3c.2-.2.6-.2 1-.4.2 0 .4.2.4.2.2.4.4.6.4 1 .2 1.2-.2 2.2-1 2.4-.4 0-.8 0-1-.2-.6-.8-.6-2.2.2-3zm-3.4 59.3c.8-.8 1.6-1 2.6-1 3.7 0 7.5.2 11.2.2 4.5 1.2 9.2.6 14 .8 1.4 0 2.8.2 4.1.6.6.2 1 .6 1.4 1 .2.2.2.8.2 1-.6 1.4-2.2 2.4-3.3 1.8-3-1.2-6.1-1.4-9.2-1.2-1 0-2 0-3-.4-2-.8-3.9-.8-5.7-.4-1.6.4-3 .4-4.5.2-1.4-.2-2.8-.2-4.1-.2-1.4 0-2.6-.4-3.7-1.4-.4-.4-1-.4-1.8-.6.7 0 1.4-.2 1.8-.4zm-10.8-1.4c1 .2 2.4.2 3.7.6.4.2.8.8 1 1.2.2.6-.8 1.6-1.4 1.6s-1.2 0-1.8-.2c-1.2-.4-2.2-.4-3.3 0-.8.2-1-.2-1-1 .1-1.6 1-2.4 2.8-2.2zm-5.7 0c.2.2.8.4 1 1 .4.6-.6 1.6-1.4 1.4-.6-.2-1-.6-1.2-1.2 0-.6.8-1.2 1.6-1.2zm-19.3-.6c1.4-.6 2.8-.6 3.9-.4 2.2.4 3.5-.6 4.7-2.4v-.2c-.2.4-.2.4-.2 0h.2v.2c0 1.4.6 2.4 2.2 2.8.8.2 1.6.2 2.4.2.4 0 .6.4.8.8 0 .2 0 .8-.4 1-2 1.2-4.1 2.2-6.5 1.6-2.2-.6-4.1-1-6.3-.6-.2 0-.4-.2-.6-.2-.4-.4-1-.6-1-1.2 0-.8.2-1.2.8-1.6zm-30.5-1.1c.2-.6.6-1.2 1.2-1.2h4.1v-.4c2.4.2 4.7.4 7.1.6.8 0 1.6.6 2.4.4 3.1-1.2 6.1.2 9.2.8.8.2 1.6.2 2.2.4s.8.8.6 1.4c0 .8-.6 1-1.2 1.2-1.6.2-3.1.2-4.5-.6-1.2-.6-2.6-.8-3.9-.6-3.5.6-7.1.2-10.6 0-1.4 0-2.8 0-4.1-.2-.6 0-1.2-.4-1.6-.6-.5-.1-1.1-.6-.9-1.2zm-7.4 16.1c.2-.8 1-1.4 1.6-1.2.8 0 1.4.4 2 1 .2.4.2 1.4-.2 1.6-.6.2-1 .4-1.4.4s-.6 0-.8-.2c-.9 0-1.4-.8-1.2-1.6zm-10.9-17.3c.8-1.2 2-1.4 2.8-.4.4.4.2 1.2-.2 1.4s-.8.2-1.2.2c-.4-.2-.8-.2-1.2-.4-.4 0-.6-.4-.2-.8zm.4 15.7c.6-.2 1.2-.2 1.8-.4.6.2 1.2.2 1.6.4s.6.6.6.8c0 .4 0 .8-.4 1-.8.4-1.8.8-2.8 1-.4 0-1.2-.4-1.6-.6-.6-.4-.2-1.8.8-2.2zm-16.9-1.1c.2-.2.4-.2.6-.2 2 .4 3.9.2 5.7.2.8 0 1.4.4 2.2.8.2.2.4.6.4 1s-.4.8-.6 1c-.8.2-1.6.4-2.2.4-1.4-.2-2.6-.6-3.9-.8-.6 1 .4 1.6.6 2.2v1c-.2.4-1 .8-1.6.6s-1.4-.6-1.4-.8c-.4-1.4-.4-3-.6-4.5-.2-.3.4-.7.8-.9zm-23.2.2c.2 0 .2.2.4.4-.4.2-.6.4-1 .4 0 0-.2-.2-.4-.4.2-.4.6-.6 1-.4zm-27.9-.2c.8-.2 1.6.8 1.2 1.4-.2.4-.8.8-1.2.8s-.8-.6-1.4-1c.6-.6.8-1 1.4-1.2zm-9.9 0c.2-.8 1-1.4 1.6-1 .8.6 1.4 1.2 2.2 1.6.6.4 1.4.6 2 1v.6c-.2.4-.4.6-.6.8-.2 0-.4.2-.6 0-1.2-.6-2.4-1-3.5-1.2-.9.3-1.3-1-1.1-1.8zm-21.8 1.5c.2 0 .2.2.4.4 0 0-.2.2-.2.4-.2-.2-.4-.2-.6-.4.2-.2.2-.4.4-.4zm-7.5-4.7c0-.4 1-1 1.4-.8 1.2.8 2.4 1.4 3.7 1.8.6.2.8.8.6 1.4s-.4 1.2-.8 1.4c-1 .8-2.2.6-3.3.6-.8 0-1.4-.8-1.6-1.6v-1.8c-.2-.2 0-.6 0-1zm-46.6 8.7v.2l-.2-.2zm-14.2-3.8c-.2-.2-.4-.4-.6-.6.2-.2.4-.4.6-.6l.4.2c-.2.4-.2.8-.4 1zm-3.1-29.3c0-.4.8-1.2 1.2-1 2.6.2 5.1.2 7.5.6 1.4.2 2.6 1 3.7 1.4.2 0 .4.4.2.4-.2.4-.4.8-.6 1-1 .2-2 .4-2.4.4-3.3-.2-6.1-.4-9-1.2-.4-.4-.6-1-.6-1.6zm-4.2-.6s.4.2.2.4c0 .6-.4.6-.8.4-.2 0-.2-.2-.4-.4.4-.2.8-.4 1-.4zm-19.5 32.3c.4-.4 1-.6 1.6-.8.4.6.8 1 1 1.4.2.6 0 1.2-.6 1.6-.4.2-.8.4-1.2.2-.6-.2-1.2-.4-1.4-.8-.3-.6.3-1.2.6-1.6zm-10.4-6.5c.6-.2 1.4.4 1.6 1.2 0 .6-.8 1.6-1.2 1.6-.6 0-1.4-1-1.4-1.8.2-.4.6-.8 1-1zm-4.7 1.6c.2-.6.6-1 1.2-.8s1.2.6.8 1.2c-.2.4-.6.8-1 1-.8-.4-1.2-.8-1-1.4zm-10 1.9c.4.2.4.4 0 .6 0 0-.2-.2-.2-.4-.2 0 0-.5.2-.2zm-9.5-12.4c.2-.2.6-.4 1.2-.6.4 0 1 .8.8 1.2-.2.6-1 1-1.8.4-.4-.2-.4-.4-.2-1zm-8 14.2c-.2.6-.4 1-1.2.8-.6 0-1-.6-.8-1.2 0-.6.6-1 1.2-.8.6.4.9.8.8 1.2zm-2.8-14.6c.2-.4.6-.6 1-.8.8 0 1.2.6 1 1-.2.8-.6 1-1.2.8-.6 0-1.2-.4-.8-1zm-26.2 17c-.2-.2-.6-.4-.6-.8 0-.6.8-1.2 1-.8.2.2.4.6.2 1 0 .2-.4.4-.6.6zm4-1.2c-.8 0-1.6-.6-1.6-1.2 0-.8.6-1.6 1.2-1.6.8 0 1.4.6 1.6 1.4.1.6-.6 1.4-1.2 1.4zm1.3-5.3c0 .2-.2.4-.4.4-.4 0-.8.2-1.2.2-.6 0-1.2-.2-2.4-.2 0 0-.6 0-1.2.2-1.2.2-2.2-.8-1.8-2.2 0-.2.2-.4.4-.4.6-.2 3.3 0 4.5.4.6.2 1.2.8 1.8 1.4.5-.2.3 0 .3.2zm-10-13.2c2.6-.4 5.3-1 8.1-1.4 1 .4 2 .8 3.1 1.2 1.8.6 3.3 1 5.1.8 1.4-.2 2.8 0 4.1 0 .4 0 .8.2 1.2.2s1.2 1 1 1.4-.6.8-.8.8c-2.2.2-4.1.8-6.3.2-.6-.2-1.2-.2-1.6.2-1.2.6-2.2.6-3.3.2-2-.8-3.7-.4-5.3 1.2-.4.4-1.2 0-1.4-.6 0-.2-.2-.4-.2-.6-.2-.4-.2-.6-.4-1h-.6c-2.9.7-3.1.5-2.7-2.6zm-.2 6.3c.2-.2.6-.4.8-.4.8 0 1.4.4 1.8 1 .2.2.2.8.2 1-.2.2-.6.4-1 .4-.8 0-1.4-.4-1.8-1 0-.2-.2-.6 0-1zm-14 4.9c.2.6-.6 1.6-1.2 1.8-.8.2-1.6-.2-1.6-1 .2-.4.2-.8.4-1 .4-.4 1-.6 1.6-.4.4 0 .6.4.8.6zm-6.3-13.6c1-.4 1.8-.2 2.6.6v-.2.2c1-.2 1.8-.4 2.8.2.4.2.8 1 .4 1.4-.2.2-.6.6-.8.6-1.4.2-2.2-.6-2.4-2.2-.6.8-1.2 1.4-2.2 1.4-.4 0-.8-.2-1-.6-.3-.2.3-1.2.6-1.4zm-17.1-1.2c.8.2 1.6.2 2.2.4 1.6.4 3 .6 4.5 0 1.4-.6 2-.2 2.8 1.2.2.2.2.6.2 1h.2c.4-.6 1-1 1.6-1 .2 0 .6.2.8.6.2.2 0 .8-.2 1s-.6.4-1 .2-1-.6-1.4-.8c0 0 0 .2-.2.2-.8.8-1.8 1.4-2.6 2.2-1.4 1.2-2 1.2-3.3-.2-.6-.8-1.4-1.2-2.4-1.2-.8 0-1.6.2-2.2-.4-.4-.4-.8-.8-.8-1.2.1-1.2 1.2-2 1.8-2zm-12.2 0c.4.2.6.2 1 .4v.4c-.4 0-.6.2-1 .2-.2 0-.4-.4-.2-.4 0-.4.2-.4.2-.6zm0 14.4c0 .2 0 .8-.2 1-.6.6-1.4.6-2.2.4s-1.2-.8-1.2-1.8c0-.2 0-.4.2-.6.9-.8 3-.2 3.4 1zm-7.8-19.3c1.2-.6 2.6 0 3.1 1.4.2.8.4 1.4 1 2 1.8 1.6 1.6 2-.2 2.8-.6.2-1.2.4-1.8.6-.8-.4-1.6-.8-2.6-1.2s-2-.8-2-1.8c.1-1.6.9-3 2.5-3.8zm-2.4 15.4c.4.2.8.2 1 .6s0 .8-.4.8-.6-.2-1-.4c0-.4.2-.8.4-1zm-9.6 1c0-.2.2-.4.4-.4.6 0 1.2 0 1.6.4s.8.8.4 1.4c-.2.2-.4.4-.8.8-.4-.2-1-.4-1.4-.8-.4-.3-.4-1-.2-1.4zm-7.3-14.4c.4-.2.8-.2 1.2 0 1 .6 2 1.2 3 1.8.2.2.4.6.4 1 0 .2-.6.4-.8.6h-.6c-.8-.4-1.4-.2-2.2.2-.8.2-1.4-.2-1.8-1-.6-1.4-.2-2.4.8-2.6zm-1 18.3c.8 0 1.8.6 1.8 1.2 0 .8-.6 1.6-1.4 1.6s-1.6-.6-1.8-1.2c0-.8.6-1.6 1.4-1.6zm-3.9-8.1c.4 0 .6.2 1 .4-.2.4-.4.8-.8 1.2-.4-.2-.8-.4-1-.6-.2-.4.2-1 .8-1zm-8.5 9.1c.4.2 1 .6 1.2 1 .2.6-.4 1.6-1.2 1.6s-1.6-.6-1.6-1.4c0-.6.8-1.4 1.6-1.2zm-6.3 1c.4.2.8.2 1 .6s0 .8-.4 1-.8 0-1-.4c.2-.4.2-.8.4-1.2zm-15.3.6c-.4 0-.6-.2-1-.2.2-.2.4-.6.6-.6.4 0 .6.2.8.4-.2.2-.2.4-.4.4zm7.2-20.9c.8-.6 1.6-1.2 2.2-1.6.4-.2 1.2 0 1.4.6s0 1.2-.6 1.4c-1 .4-2 .2-3-.4.6.8 1.2 1.4 1.6 2.2.4.6 0 1.8-.6 2-.6.4-1.4 1-2.2.8-1.2 0-2.4-.4-3.3-1.2-1.2-1-1-2.6.4-3.5.6-.4 1.6-.4 2-1 1.2-.7 1.3 1.1 2.1.7zm-3.7-4.8-.2.2-.2-.2zm-1.8 3c.2-.2.6-.4.8-.4.2.4.4.6.4 1s-.4.6-1 .4c-.4-.2-.4-.6-.2-1zm-1.9 8.3c.2-.2.8 0 1 .2s.4.6.4.8 0 .4-.2.6c-.4.4-.8.8-1.2 1v.2h-.2c-.2.2-.6.2-.8.4 0-1 .6-.6.8-.4-.2-.6-.6-1.2-.8-1.8zm-3.4-7.5c.8.4 1.8.8 2.4 1.4.2.2.4.6.4 1s-.8 1-1.2 1c-1.2 0-2.2-.4-3-1.4-.2-.2-.2-.4-.2-.6.2-.6 1.2-1.6 1.6-1.4zm-5.5 28.2c.4 0 .6.2 1 .4-.2.2-.4.6-.8.6-.2 0-.6-.4-.8-.6.4-.2.4-.6.6-.4zm-10-35.5c.2-.2.6-.4 1-.4s1 .2 1 .4c.4 1.8 1.6 3 2.4 4.7.2.4 0 .8-.4 1-.2 0-.4.2-.6 0-.8-.4-1.8-.8-2.6-1.4-1.2-1-1.6-2.5-.8-4.3zm.2 19.1-.4.2v-.4zm-.6 12.2c1-.8 2.2-1.6 3.3-2.2.2-.2.8.2 1 .4s.4.8.2 1c-1 .8-2 1.8-3.1 2.4-.4.2-1-.2-1.6-.4.2-.4 0-1 .2-1.2zm-8.7-25.2s.4 0 .6.2c.4.4.8.8.6 1.4-.2.4-.4.8-.6.8-.2.2-.8 0-1-.2s-.2-.6-.4-1.2c.2-.2.6-.6.8-1zm-7.1 25.2c.4-.2 1.4.6 1.2 1s-.8.8-1.4 1.4c-.2-.8-.6-1.2-.6-1.6.2-.2.6-.6.8-.8zm-9.4-13.2c.2.2.6.4.6.8 0 .2-.4.4-.6.6 0 0-.4-.2-.4-.4.2-.4.2-.6.4-1zm-35.6 18.6c.4-.2.6 0 .6.6 0 .2-.2.4-.4.4s-.2-.2-.4-.4c0-.3 0-.6.2-.6z" fill="#fff" /></svg>